<?xml version="1.0" encoding="UTF-8"?>
<!DOCTYPE svg PUBLIC "-//W3C//DTD SVG 1.1//EN" "http://www.w3.org/Graphics/SVG/1.1/DTD/svg11.dtd">
<!-- Creator: CorelDRAW 2018 (64-Bit) -->
<svg xmlns="http://www.w3.org/2000/svg" xml:space="preserve" width="8.2081mm" height="5.0543mm" version="1.1" style="shape-rendering:geometricPrecision; text-rendering:geometricPrecision; image-rendering:optimizeQuality; fill-rule:evenodd; clip-rule:evenodd"
viewBox="0 0 2.86 1.76"
 xmlns:xlink="http://www.w3.org/1999/xlink">
 <defs>
  <style type="text/css">
   <![CDATA[
    .fil0 {fill:#FEFEFE}
   ]]>
  </style>
 </defs>
 <g id="Слой_x0020_1">
  <metadata id="CorelCorpID_0Corel-Layer"/>
  <g id="_2515483618112">
   <path class="fil0" d="M1.76 0.68l-0.87 0 0 0.3 0.58 0c-0.09,0.57 -0.88,0.68 -1.12,0.13 -0.11,-0.25 -0.02,-0.54 0.19,-0.71 0.2,-0.15 0.5,-0.14 0.73,0.02l0.21 -0.2c-0.74,-0.65 -1.88,0.24 -1.35,1.11 0.48,0.79 1.8,0.42 1.62,-0.65z"/>
   <polygon class="fil0" points="2.07,0.69 2.07,0.88 2.37,0.88 2.37,1.17 2.57,1.17 2.56,0.88 2.86,0.88 2.86,0.68 2.57,0.68 2.56,0.39 2.37,0.39 2.37,0.68 "/>
  </g>
 </g>
</svg>
