<?xml version="1.0" encoding="UTF-8"?>
<!DOCTYPE svg PUBLIC "-//W3C//DTD SVG 1.1//EN" "http://www.w3.org/Graphics/SVG/1.1/DTD/svg11.dtd">
<!-- Creator: CorelDRAW 2018 (64-Bit) -->
<svg xmlns="http://www.w3.org/2000/svg" xml:space="preserve" width="48.0775mm" height="21.4495mm" version="1.1" style="shape-rendering:geometricPrecision; text-rendering:geometricPrecision; image-rendering:optimizeQuality; fill-rule:evenodd; clip-rule:evenodd"
viewBox="0 0 115.7 51.62"
 xmlns:xlink="http://www.w3.org/1999/xlink">
 <defs>
  <style type="text/css">
   <![CDATA[
    .fil1 {fill:#2B2A29}
    .fil0 {fill:#DB62A0}
    .fil2 {fill:#2A2928}
   ]]>
  </style>
 </defs>
 <g id="Слой_x0020_1">
  <metadata id="CorelCorpID_0Corel-Layer"/>
  <path class="fil0" d="M84.9 4.19c-0.28,5.23 2.46,14.78 2.21,20.71 -1.51,0.98 -5.97,1.9 -9.49,3.94 -2.89,1.68 -5.45,3.71 -6.93,6.38 -1.76,3.16 -1.79,7.69 0.84,9.87 4.43,3.67 14.72,1.91 20.03,-3.13 2.62,-2.48 3.3,-5.56 2.64,-10.32 -1,-7.15 -2.35,-14.57 -3.04,-21.85 -0.13,-1.42 -0.55,-1.72 0.76,-1.7 2.96,0.04 5.07,0.92 7.09,2.35 2.72,1.93 5.19,0.69 5.78,-2.59 1.05,-5.85 -19.43,-12.29 -19.89,-3.66z"/>
  <path class="fil1" d="M8.14 28.8c0.58,-4.39 2.05,-8.87 3.52,-12.63 0.5,-1.28 2.53,-5.08 1.57,-6.27 -0.74,-0.93 -2.25,-0.6 -3.37,-0.23 -1.19,0.39 -1.69,1.05 -2.2,2.11 -4.26,8.97 -6.54,15.59 -7.5,26.9 -0.19,2.26 -0.47,6.09 0.74,7.72 6.11,8.25 26.18,-5.21 19.69,-15.59 -2.83,-4.52 -8.12,-2.72 -10.96,-1.58 -1.53,0.62 -1.7,1.11 -1.5,-0.44zm-0.93 12.85c1.59,-0.04 3.19,-0.78 4.13,-1.61 0.78,-0.69 3.54,-3.63 2.48,-5.31 -1.35,-2.14 -6.8,0.76 -8.29,4.22 -0.85,1.97 -0.49,2.76 1.68,2.7z"/>
  <path class="fil2" d="M62.86 47.29c0.71,1.17 1.01,2.51 2.03,3.57 1.56,1.63 3.18,0.37 3.85,-1.17 0.5,-1.15 -0.75,-5.52 -0.94,-7.48 -0.43,-4.59 -0.66,-10.41 -3.59,-13.02 -2.41,-2.14 -6.15,-3.12 -9.82,-1.43 -9.34,4.3 -12.9,21.61 -1.45,22.41 2.07,0.15 3.92,-0.09 5.63,-0.82 1.37,-0.58 2.71,-1.84 3.68,-2.33 0.4,-0.2 0.35,-0.13 0.59,0.27zm-5.22 -14.57c-5.67,1.59 -7.79,10.67 -5.18,11.72 1.24,0.5 3.36,0.01 4.41,-0.48 1.4,-0.65 2.07,-1.34 2.78,-2.56 1.07,-1.85 1.13,-6.22 0.23,-8.34 -0.4,-0.95 -1.35,-0.59 -2.24,-0.34z"/>
  <path class="fil2" d="M31.34 38.81c5.26,-1.53 8.99,-5.53 8.49,-11.05 -0.85,-9.44 -16.13,-9.18 -16.9,5.14 -0.49,9.25 5.62,13.53 14.84,12.45 7.9,-0.93 6.63,-5.4 4.56,-6.15 -2.89,-1.04 -7.72,1.68 -11.09,0.42 -1.49,-0.56 -0.88,-0.53 0.09,-0.81zm-0.69 -6.17c1.17,-0.14 2.14,-0.65 2.74,-1.3 0.69,-0.75 1.38,-2.83 0.44,-3.92 -1.04,-1.22 -4.34,0.27 -4.51,3.85 -0.06,1.4 -0.06,1.55 1.33,1.38z"/>
  <path class="fil2" d="M109.58 39.71c-1.69,3.67 -7.96,4.79 -5.46,8.19 3.66,4.97 18.46,-12.36 7.76,-14.31 -4.03,-0.73 -9.8,1.61 -9.94,-1.33 -0.18,-3.75 4.2,-4.17 6.46,-5.22 1.99,-0.92 3.43,-2.47 1.39,-4.47 -1.45,-1.42 -2.84,-2.36 -5.34,-1.11 -1.77,0.88 -3.54,2.06 -4.69,3.1 -2.19,1.98 -4.97,7.24 -2.48,11.34 2.14,3.52 7.01,3.15 11.78,3.01 0.88,-0.02 0.97,-0.16 0.52,0.81z"/>
 </g>
</svg>
