<?xml version="1.0" encoding="UTF-8"?>
<!DOCTYPE svg PUBLIC "-//W3C//DTD SVG 1.1//EN" "http://www.w3.org/Graphics/SVG/1.1/DTD/svg11.dtd">
<!-- Creator: CorelDRAW 2018 (64-Bit) -->
<svg xmlns="http://www.w3.org/2000/svg" xml:space="preserve" width="131.307mm" height="58.5824mm" version="1.1" style="shape-rendering:geometricPrecision; text-rendering:geometricPrecision; image-rendering:optimizeQuality; fill-rule:evenodd; clip-rule:evenodd"
viewBox="0 0 11833.8 5279.62"
 xmlns:xlink="http://www.w3.org/1999/xlink">
 <defs>
  <style type="text/css">
   <![CDATA[
    .fil1 {fill:#2B2A29}
    .fil0 {fill:#DB62A0}
    .fil2 {fill:#2A2928}
   ]]>
  </style>
 </defs>
 <g id="Слой_x0020_1">
  <metadata id="CorelCorpID_0Corel-Layer"/>
  <path class="fil0" d="M8683.71 429c-28.59,534.87 251.41,1511.74 225.73,2117.92 -154.72,100.12 -610.22,194.12 -970.35,402.87 -295.89,171.49 -557.12,378.99 -709.12,652.35 -179.59,323.03 -183,786.1 86.3,1009.35 453.21,375.7 1505.67,195.63 2049,-319.86 267.76,-254.03 337.67,-568.78 269.62,-1055.38 -102.2,-730.86 -240.64,-1489.8 -310.82,-2234.6 -13.59,-144.75 -56.33,-176.24 77.8,-174.36 303.02,4.24 518.58,93.75 725.02,240.44 277.72,197.31 530.69,70.33 591.06,-264.55 107.84,-598.05 -1987,-1256.86 -2034.25,-374.2z"/>
  <path class="fil1" d="M832.73 2945.11c59.39,-448.49 209.56,-907.15 359.82,-1291.43 51.07,-130.53 258.38,-519.29 161.06,-641.22 -75.7,-94.86 -230.45,-60.91 -344.26,-23.99 -121.29,39.39 -173.32,107.74 -224.51,215.73 -435.25,917.85 -669.23,1594.84 -767.31,2751.12 -19.63,231.33 -48.18,622.46 75.76,789.84 624.71,843.62 2677.19,-532.64 2013.37,-1594.1 -289.43,-462.77 -830.14,-278.43 -1120.78,-161.21 -156.96,63.26 -174.02,113.48 -153.15,-44.74zm-94.79 1313.83c162.23,-4.25 325.77,-79.52 422.2,-164.98 79.91,-70.85 362.56,-371.69 253.92,-543.31 -138.38,-218.59 -695.9,77.37 -847.66,431.73 -86.53,201.98 -49.76,282.35 171.54,276.55z"/>
  <path class="fil2" d="M6429.36 4836.66c72.88,119.32 103.69,256.23 207.9,364.91 159.83,166.64 325.38,37.85 394.08,-119.62 51.54,-118.14 -76.99,-565.03 -95.67,-764.63 -43.89,-469.86 -67.53,-1065.05 -367.21,-1331.39 -246.06,-218.62 -628.57,-319.36 -1004.1,-146.56 -954.81,439.33 -1319.67,2209.77 -148.54,2292.43 211.25,14.91 400.56,-9.41 576.08,-84.02 140.08,-59.54 277.25,-187.81 376.75,-238.26 40.92,-20.77 35.97,-13.32 60.7,27.14zm-533.97 -1490.05c-579.5,162.83 -797.11,1091.16 -529.4,1198.73 127.3,51.14 344.14,0.72 450.6,-49.14 142.92,-66.92 211.97,-136.92 284.09,-262 109.25,-189.54 115.66,-635.84 23.69,-853.16 -41.25,-97.47 -138.39,-59.91 -228.98,-34.44z"/>
  <path class="fil2" d="M3205.66 3969.21c538.3,-156.34 919.26,-565.33 868.33,-1130.43 -86.94,-964.98 -1650.2,-938.86 -1728.38,525.9 -50.45,945.68 574.85,1384.33 1518.15,1272.93 807.48,-95.39 677.73,-552.37 466.34,-628.52 -295.72,-106.55 -790.11,172.31 -1133.87,42.68 -151.98,-57.36 -89.82,-53.78 9.43,-82.57zm-71.05 -631.07c120.07,-14.58 219,-66.66 280.02,-133.18 70.66,-77 140.65,-289.61 44.69,-401.24 -106.88,-124.3 -444.28,27.39 -460.9,393.6 -6.48,142.85 -5.79,158.02 136.18,140.82z"/>
  <path class="fil2" d="M11207.67 4061.43c-173.14,375.11 -814.44,489.94 -558.16,838.15 374.47,508.83 1888.08,-1264.19 793.62,-1463.38 -412.22,-75.04 -1002.49,164.21 -1017.1,-136.54 -18.64,-383.5 429.88,-427.02 660.95,-534.11 203.82,-94.48 350.48,-252.99 142.05,-457.55 -148.32,-145.55 -290.05,-241.13 -546.33,-113.78 -181.32,90.06 -362.04,210.65 -479.69,316.68 -224.29,202.11 -508.62,740.27 -253.8,1160.07 218.58,360.08 716.76,321.96 1204.81,308.09 90.23,-2.51 98.97,-16.02 53.64,82.36z"/>
 </g>
</svg>
