<?xml version="1.0" encoding="UTF-8"?>
<!DOCTYPE svg PUBLIC "-//W3C//DTD SVG 1.1//EN" "http://www.w3.org/Graphics/SVG/1.1/DTD/svg11.dtd">
<!-- Creator: CorelDRAW 2018 (64-Bit) -->
<svg xmlns="http://www.w3.org/2000/svg" xml:space="preserve" width="126.578mm" height="38.8993mm" version="1.1" style="shape-rendering:geometricPrecision; text-rendering:geometricPrecision; image-rendering:optimizeQuality; fill-rule:evenodd; clip-rule:evenodd"
viewBox="0 0 1301.45 399.96"
 xmlns:xlink="http://www.w3.org/1999/xlink">
 <defs>
  <style type="text/css">
   <![CDATA[
    .str0 {stroke:#2B2A29;stroke-width:5.14;stroke-miterlimit:22.9256}
    .str1 {stroke:#151515;stroke-width:5.14;stroke-miterlimit:22.9256}
    .fil0 {fill:#FEFEFE}
    .fil1 {fill:#151515}
   ]]>
  </style>
 </defs>
 <g id="Слой_x0020_1">
  <metadata id="CorelCorpID_0Corel-Layer"/>
  <rect class="fil0 str0" x="2.57" y="2.57" width="92.59" height="394.81"/>
  <g id="_2515300421264">
   <rect class="fil0 str1" x="95.16" y="2.57" width="92.59" height="394.81"/>
   <rect class="fil0 str1" x="187.76" y="2.57" width="92.59" height="394.81"/>
  </g>
  <rect class="fil0 str1" x="280.35" y="2.57" width="92.59" height="394.81"/>
  <rect class="fil0 str1" x="372.94" y="2.57" width="92.59" height="394.81"/>
  <g id="_2515300423184">
   <rect class="fil0 str1" x="465.54" y="2.57" width="92.59" height="394.81"/>
   <rect class="fil0 str1" x="558.13" y="2.57" width="92.59" height="394.81"/>
  </g>
  <rect class="fil0 str1" x="650.72" y="2.57" width="92.59" height="394.81"/>
  <g id="_2515300424336">
   <rect class="fil0 str1" x="743.32" y="2.57" width="92.59" height="394.81"/>
   <rect class="fil0 str1" x="835.91" y="2.57" width="92.59" height="394.81"/>
  </g>
  <rect class="fil0 str1" x="928.5" y="2.57" width="92.59" height="394.81"/>
  <rect class="fil0 str1" x="1021.1" y="2.57" width="92.59" height="394.81"/>
  <g id="_2515300424432">
   <rect class="fil0 str1" x="1113.69" y="2.57" width="92.59" height="394.81"/>
   <rect class="fil0 str1" x="1206.28" y="2.57" width="92.59" height="394.81"/>
  </g>
  <rect class="fil1" x="69.47" y="2.57" width="51.39" height="223.1"/>
  <rect class="fil1" x="162.06" y="2.57" width="51.39" height="223.1"/>
  <rect class="fil1" x="347.25" y="2.57" width="51.39" height="223.1"/>
  <rect class="fil1" x="439.84" y="2.57" width="51.39" height="223.1"/>
  <rect class="fil1" x="532.44" y="2.57" width="51.39" height="223.1"/>
  <rect class="fil1" x="717.62" y="2.57" width="51.39" height="223.1"/>
  <rect class="fil1" x="810.22" y="2.57" width="51.39" height="223.1"/>
  <rect class="fil1" x="995.4" y="2.57" width="51.39" height="223.1"/>
  <rect class="fil1" x="1087.99" y="2.57" width="51.39" height="223.1"/>
  <rect class="fil1" x="1180.59" y="2.57" width="51.39" height="223.1"/>
 </g>
</svg>
